<?xml version="1.0" encoding="utf-8"?>
<!-- Generator: Adobe Illustrator 15.0.2, SVG Export Plug-In . SVG Version: 6.00 Build 0)  -->
<!DOCTYPE svg PUBLIC "-//W3C//DTD SVG 1.1//EN" "http://www.w3.org/Graphics/SVG/1.1/DTD/svg11.dtd">
<svg version="1.1" id="Layer_1" xmlns="http://www.w3.org/2000/svg" xmlns:xlink="http://www.w3.org/1999/xlink" x="0px" y="0px"
	 width="116.814px" height="18.647px" viewBox="1.405 0.961 116.814 18.647" enable-background="new 1.405 0.961 116.814 18.647"
	 xml:space="preserve">
<g>
	<g>
		<path fill="#58595B" d="M8.327,18.651H7.094V2.289H1.405V1.14h12.613v1.149H8.327V18.651z"/>
		<path fill="#58595B" d="M24.824,18.651v-8.016c0-1.244-0.262-2.146-0.785-2.712c-0.523-0.563-1.333-0.846-2.432-0.846
			c-1.478,0-2.559,0.373-3.245,1.118c-0.686,0.748-1.03,1.959-1.03,3.632v6.822h-1.125V0.961h1.125v5.627l-0.057,1.581h0.079
			c0.463-0.744,1.047-1.281,1.751-1.615c0.705-0.333,1.58-0.5,2.625-0.5c2.805,0,4.208,1.504,4.208,4.513v8.083L24.824,18.651
			L24.824,18.651z"/>
		<path fill="#58595B" d="M39.112,12.455c0,2.016-0.489,3.59-1.467,4.723c-0.977,1.133-2.325,1.7-4.046,1.7
			c-1.084,0-2.039-0.262-2.865-0.784c-0.826-0.523-1.46-1.274-1.898-2.251c-0.44-0.979-0.66-2.107-0.66-3.388
			c0-2.017,0.489-3.587,1.466-4.714c0.977-1.124,2.318-1.687,4.025-1.687c1.697,0,3.03,0.57,3.996,1.71
			C38.629,8.906,39.112,10.469,39.112,12.455z M29.358,12.455c0,1.697,0.373,3.022,1.12,3.974c0.747,0.95,1.802,1.426,3.166,1.426
			c1.364,0,2.42-0.476,3.167-1.426c0.746-0.952,1.12-2.276,1.12-3.974c0-1.705-0.377-3.028-1.131-3.968
			c-0.755-0.94-1.814-1.409-3.177-1.409c-1.365,0-2.416,0.468-3.155,1.403C29.727,9.417,29.358,10.742,29.358,12.455z"/>
		<path fill="#58595B" d="M46.235,6.054c0.523,0,1.084,0.053,1.683,0.159l-0.217,1.08C47.186,7.165,46.652,7.1,46.099,7.1
			c-1.053,0-1.918,0.446-2.593,1.341c-0.673,0.895-1.011,2.022-1.011,3.388v6.822H41.37V6.292h0.955l0.113,2.229h0.081
			c0.506-0.91,1.05-1.548,1.626-1.916C44.719,6.237,45.417,6.054,46.235,6.054z"/>
		<path fill="#58595B" d="M50.156,2.859c0-0.727,0.238-1.09,0.717-1.09c0.234,0,0.417,0.094,0.551,0.284
			c0.132,0.189,0.198,0.458,0.198,0.806c0,0.341-0.066,0.609-0.198,0.806c-0.134,0.198-0.317,0.296-0.551,0.296
			C50.394,3.962,50.156,3.594,50.156,2.859z M51.439,18.651h-1.125V6.292h1.125V18.651z"/>
		<path fill="#58595B" d="M55.392,6.292v8.004c0,1.244,0.262,2.147,0.784,2.711c0.523,0.564,1.333,0.847,2.434,0.847
			c1.47,0,2.551-0.372,3.245-1.114c0.694-0.743,1.04-1.953,1.04-3.627V6.292h1.114V18.65h-0.956l-0.205-1.707h-0.067
			c-0.804,1.29-2.232,1.934-4.285,1.934c-2.813,0-4.218-1.504-4.218-4.513V6.292H55.392z"/>
		<path fill="#58595B" d="M82.188,18.651v-8.107c0-1.206-0.235-2.084-0.705-2.638c-0.471-0.553-1.191-0.829-2.161-0.829
			c-1.265,0-2.201,0.348-2.807,1.045c-0.608,0.698-0.911,1.792-0.911,3.285v7.243h-1.147v-8.447c0-2.084-0.956-3.126-2.866-3.126
			c-1.295,0-2.239,0.376-2.83,1.13c-0.591,0.755-0.887,1.963-0.887,3.622v6.822h-1.126V6.292h0.934l0.238,1.695h0.069
			c0.341-0.615,0.826-1.089,1.455-1.426c0.629-0.338,1.322-0.506,2.08-0.506c1.948,0,3.199,0.731,3.752,2.194h0.045
			c0.402-0.705,0.942-1.247,1.621-1.627c0.678-0.378,1.449-0.567,2.313-0.567c1.35,0,2.361,0.359,3.035,1.08
			c0.676,0.719,1.013,1.864,1.013,3.433v8.083L82.188,18.651L82.188,18.651z"/>
	</g>
	<g>
		<polygon fill="#00AEEF" points="89.634,18.877 86.535,18.877 96.836,1.466 99.934,1.466 		"/>
		<polygon fill="#1C75BC" points="96.178,18.877 91.046,18.877 101.349,1.466 106.48,1.466 		"/>
		<polygon fill="#1C518D" points="106.862,18.877 97.677,18.877 107.98,1.466 117.166,1.466 		"/>
	</g>
</g>
</svg>
