<?xml version="1.0" encoding="utf-8"?>
<!-- Generator: Adobe Illustrator 15.0.2, SVG Export Plug-In . SVG Version: 6.00 Build 0)  -->
<!DOCTYPE svg PUBLIC "-//W3C//DTD SVG 1.1//EN" "http://www.w3.org/Graphics/SVG/1.1/DTD/svg11.dtd">
<svg version="1.1" id="Layer_1" xmlns="http://www.w3.org/2000/svg" xmlns:xlink="http://www.w3.org/1999/xlink" x="0px" y="0px"
	 width="215.826px" height="33.403px" viewBox="0 0 215.826 33.403" enable-background="new 0 0 215.826 33.403"
	 xml:space="preserve">
<g>
	<g>
		<path fill="#FFFFFF" d="M12.908,32.98h-2.3V2.475H0V0.332h23.516v2.145H12.908V32.98z"/>
		<path fill="#FFFFFF" d="M43.662,32.98V18.038c0-2.319-0.488-4.003-1.462-5.056c-0.975-1.052-2.487-1.579-4.536-1.579
			c-2.756,0-4.771,0.695-6.051,2.086c-1.279,1.393-1.919,3.65-1.919,6.771v12.72h-2.097V0h2.097v10.491l-0.106,2.947h0.149
			c0.861-1.386,1.95-2.388,3.264-3.011c1.314-0.621,2.946-0.934,4.896-0.934c5.228,0,7.843,2.805,7.843,8.416v15.07H43.662
			L43.662,32.98z"/>
		<path fill="#FFFFFF" d="M70.301,21.427c0,3.761-0.909,6.696-2.733,8.809c-1.822,2.112-4.337,3.168-7.544,3.168
			c-2.021,0-3.801-0.487-5.341-1.461c-1.541-0.977-2.722-2.375-3.539-4.197c-0.82-1.823-1.23-3.928-1.23-6.317
			c0-3.759,0.912-6.687,2.735-8.785c1.822-2.098,4.323-3.147,7.503-3.147c3.164,0,5.647,1.064,7.449,3.191
			C69.401,14.812,70.301,17.726,70.301,21.427z M52.116,21.427c0,3.167,0.696,5.636,2.089,7.408
			c1.392,1.773,3.359,2.662,5.901,2.662c2.544,0,4.511-0.889,5.903-2.662c1.392-1.772,2.089-4.242,2.089-7.408
			c0-3.178-0.704-5.644-2.11-7.396c-1.406-1.752-3.381-2.627-5.923-2.627c-2.544,0-4.505,0.872-5.882,2.618
			C52.804,15.765,52.116,18.235,52.116,21.427z"/>
		<path fill="#FFFFFF" d="M83.582,9.494c0.976,0,2.021,0.1,3.139,0.297l-0.403,2.015c-0.96-0.239-1.958-0.36-2.987-0.36
			c-1.965,0-3.576,0.833-4.834,2.5c-1.257,1.668-1.887,3.771-1.887,6.315v12.72h-2.097V9.94h1.778l0.212,4.154h0.149
			c0.946-1.695,1.958-2.886,3.031-3.571C80.755,9.837,82.056,9.494,83.582,9.494z"/>
		<path fill="#FFFFFF" d="M90.892,3.539c0-1.354,0.443-2.034,1.335-2.034c0.437,0,0.779,0.178,1.026,0.53
			c0.247,0.354,0.372,0.854,0.372,1.504c0,0.636-0.125,1.138-0.372,1.505c-0.247,0.369-0.59,0.551-1.026,0.551
			C91.335,5.594,90.892,4.91,90.892,3.539z M93.286,32.98h-2.099V9.94h2.099V32.98z"/>
		<path fill="#FFFFFF" d="M100.653,9.94v14.922c0,2.317,0.488,4.002,1.462,5.054c0.975,1.053,2.487,1.581,4.536,1.581
			c2.742,0,4.757-0.692,6.053-2.078c1.292-1.385,1.939-3.639,1.939-6.762V9.94h2.077v23.04h-1.781l-0.382-3.182h-0.126
			c-1.498,2.403-4.162,3.604-7.99,3.604c-5.243,0-7.863-2.806-7.863-8.413V9.94H100.653z"/>
		<path fill="#FFFFFF" d="M150.613,32.98V17.867c0-2.246-0.438-3.886-1.314-4.917c-0.875-1.031-2.219-1.546-4.027-1.546
			c-2.36,0-4.104,0.648-5.233,1.95c-1.132,1.3-1.697,3.34-1.697,6.125V32.98h-2.14V17.231c0-3.887-1.782-5.828-5.342-5.828
			c-2.417,0-4.175,0.703-5.277,2.107c-1.102,1.406-1.653,3.657-1.653,6.75v12.72h-2.1V9.94h1.738l0.446,3.158h0.128
			c0.635-1.146,1.54-2.031,2.712-2.659c1.173-0.63,2.466-0.945,3.878-0.945c3.631,0,5.963,1.364,6.995,4.092h0.084
			c0.75-1.313,1.757-2.325,3.021-3.033c1.266-0.705,2.703-1.06,4.314-1.06c2.516,0,4.4,0.671,5.659,2.015
			c1.258,1.342,1.887,3.477,1.887,6.401v15.07L150.613,32.98L150.613,32.98z"/>
	</g>
	<g>
		<polygon fill="#00AEEF" points="164.494,33.403 158.715,33.403 177.922,0.942 183.699,0.942 		"/>
		<polygon fill="#1C75BC" points="176.694,33.403 167.128,33.403 186.336,0.942 195.901,0.942 		"/>
		<polygon fill="#1C518D" points="196.614,33.403 179.489,33.403 198.7,0.942 215.826,0.942 		"/>
	</g>
</g>
</svg>
